<?xml version="1.0" encoding="utf-8"?>
<!-- Generator: Adobe Illustrator 27.4.1, SVG Export Plug-In . SVG Version: 6.00 Build 0)  -->
<svg version="1.1" id="Layer_1" xmlns="http://www.w3.org/2000/svg" xmlns:xlink="http://www.w3.org/1999/xlink" x="0px" y="0px"
	 viewBox="0 0 450.1 419.2" style="enable-background:new 0 0 450.1 419.2;" xml:space="preserve">
<style type="text/css">
	.st0{fill:#F4D530;}
	.st1{fill:#FFFFFF;}
	.st2{font-family:'OpenSans-Semibold';}
	.st3{font-size:95.355px;}
	.st4{font-size:64.6826px;}
</style>
<g id="calcofi_x5F_logo">
	<path class="st0" d="M381.3,227.2c-7.3,2.6-14.6,5.1-22,7.7c-12.6,4.4-25.1,8.8-37.7,13.1c-1.7,0.6-1.9,1.5-1.9,3.1
		c0.2,13.1-1.9,25.9-6.6,38.3c-7.2,18.9-18.9,34.5-35.2,46.5c-9.3,6.8-19.3,12.1-30.5,15.2c-2.2,0.6-2.9,1.9-3,4.1
		c-0.4,19.2-0.9,38.4-1.4,57.6c0,0.7-0.1,1.4-0.6,2.2c-1.2-3.4-2.6-6.8-3.8-10.3c-5.4-15.5-10.8-31-16.2-46.5
		c-0.6-1.9-1.5-2.6-3.6-2.6c-36.2-0.2-64.8-15.2-85.8-44.6c-6-8.3-10.4-17.4-13.1-27.3c-0.9-3.2-2.4-3.9-5.6-4
		c-19.2-0.4-38.3-1.1-57.7-2.1c3.3-1.2,6.7-2.6,10-3.8c15.2-5.6,30.4-11.2,45.7-16.6c2.2-0.8,2.9-1.8,2.9-4.1
		c-0.1-27.3,9.3-50.9,27.7-70.9c11.8-12.8,26.2-22,43-27.2c2.9-0.9,3.8-2.2,3.9-5.1c0.2-16.8,0.5-33.7,0.8-50.5c0.1-2.8,0-5.6,0-8.3
		c1.3,0,1.2,0.9,1.4,1.5c6.6,18.2,13.3,36.5,19.8,54.7c0.7,2.1,1.6,2.7,3.9,2.7c36.9,0,65.8,15.4,86.9,45.4c5.6,8,10,16.9,12.5,26.4
		c0.7,2.5,1.7,3.3,4.4,3.4c20.6,0.3,41.2,0.8,61.8,1.2C381.2,226.7,381.2,226.9,381.3,227.2z M217.3,351.1
		c50.3-0.8,95.5-38.3,97.7-95.1c2.1-52.9-37.6-99.5-94.8-101.4c-52.4-1.8-97.8,38-100.2,94.5C117.5,302.2,158.4,349.5,217.3,351.1z"
		/>
	<path class="st0" d="M130,192.5c-3.4,5.3-6.2,10.2-8.8,15.8c-4.4-5.8-8.6-11.4-13.3-17.5C115.7,191.3,122.6,191.9,130,192.5z"/>
	<path class="st0" d="M139.2,324.6c4.3,4.6,8.3,8.3,13.1,12.2c-6.8,2.9-13.3,5.6-20.5,8.7C134.4,338.2,136.7,331.6,139.2,324.6z"/>
	<path class="st0" d="M112.6,236.5c-0.5,6.1-1.2,11.6-1,17.8c-6.6-3.5-12.8-6.6-19.4-10.1C99.2,241.5,105.7,239.1,112.6,236.5z"/>
	<path class="st0" d="M122.6,300.2c-7.4,0.2-14.2-0.4-21.3-0.7c5.3-4.8,10.3-9.4,15.3-14.1C117.8,289.6,120,294.7,122.6,300.2z"/>
	<path class="st0" d="M135,319.9c-7,1.3-13.5,2.6-20.8,3.9c3.6-6.4,7-12.4,10.7-18.9C128.1,310.2,131.3,314.9,135,319.9z"/>
	<path class="st0" d="M326.2,315.2c-7.6-0.7-14.4-1.2-21.4-1.9c2.9-5.1,5.7-10,8.7-15.1C317.6,303.8,321.7,309.2,326.2,315.2z"/>
	<path class="st0" d="M281.9,168.1c6.8-2.9,13.1-5.6,20.1-8.5c-2.5,7.2-4.7,13.6-7.1,20.3C290.7,175.6,286.6,171.9,281.9,168.1z"/>
	<path class="st0" d="M97.6,216.8c7.3-1,13.8-2.2,20.7-2.5c-1.6,5.6-3.1,10.9-4.8,16.8C108.3,226.4,103.2,221.8,97.6,216.8z"/>
	<path class="st0" d="M146.2,150c6.4,3.6,12.1,6.9,18.2,10.4c-5,3.4-9.8,6.4-14.8,10.5C148.5,163.9,147.4,157.4,146.2,150z"/>
	<path class="st0" d="M125,168.6c7.1,2.1,13.5,3.9,20.3,5.9c-4.3,4.3-8.1,8.5-12,13.4C130.4,181.4,127.9,175.4,125,168.6z"/>
	<path class="st0" d="M323.5,252c6.3,3.3,12.2,6.5,18.7,10c-6.9,2.5-13.1,4.8-19.9,7.3C322.7,263.4,323.1,257.9,323.5,252z"/>
	<path class="st0" d="M252.8,133c1.2,7.1,2.6,13.4,3.2,20.2c-5.8-1.7-11.2-3.2-17-4.9C243.6,143.2,247.9,138.4,252.8,133z"/>
	<path class="st0" d="M333,206.2c-4.8,4.6-9.6,9-14.5,13.8c-1.9-4.8-4-9.8-6-14.8c6.9,0,13.5,0,20.3,0
		C332.7,205.5,332.9,205.8,333,206.2z"/>
	<path class="st0" d="M309.3,199.4c-3.2-5.2-6.3-9.7-10-14.3c6.8-1.3,13.2-2.6,20.5-4.1C316.2,187.5,312.9,193.2,309.3,199.4z"/>
	<path class="st0" d="M316.2,291.7c1.8-5.6,3.5-10.8,4.7-16.9c5.3,4.9,10.3,9.4,15.8,14.4C329.7,290.1,323.1,290.9,316.2,291.7z"/>
	<path class="st0" d="M279.1,143.8c-0.8,7.3-1.4,13.8-2.1,20.6c-5.1-3.1-9.9-6-15.4-8.7C267.3,151.8,272.8,148,279.1,143.8z"/>
	<path class="st0" d="M155,361c0.7-7.3,1.2-13.8,1.9-20.7c5.1,3,9.8,6.1,15.5,8.8C166.6,353.1,161.1,356.9,155,361z"/>
	<path class="st0" d="M194.9,356.9c-4.7,5.3-9.1,10.1-13.9,15.4c-1.1-7.2-2.2-13.8-3.2-20.6C183.4,353.7,188.9,355.3,194.9,356.9z"
		/>
	<path class="st0" d="M215.5,146.3c3.4-6.3,6.6-12.1,10.1-18.5c2.4,6.7,4.6,12.8,7,19.6C226.9,146.3,221.5,146.4,215.5,146.3z"/>
	<path class="st0" d="M309,337.2c-7-2.1-13.2-3.9-19.9-6c4.2-4.2,7.9-8.1,11.8-13C303.7,324.7,306.2,330.7,309,337.2z"/>
	<path class="st0" d="M287.4,355.6c-6.3-3.6-11.7-6.9-17.6-10.3c5.2-3.2,10-6.3,14.7-10.3C285.5,342.1,286.4,348.5,287.4,355.6z"/>
	<path class="st0" d="M170.1,157.3c0-6.9,0.2-13.3,0.8-20.3c5,4.7,9.8,9.1,15.1,14.1C180.2,152.6,175.4,155,170.1,157.3z"/>
	<path class="st0" d="M208.2,377.1c-2.4-6.6-4.6-12.6-6.9-19c5.7,0.3,11,1.3,16.9,0.9C214.8,365.2,211.7,370.9,208.2,377.1z"/>
	<path class="st0" d="M248.2,354.6c5.6-1.8,10.4-3.8,15.5-6.1c0,6.7-0.2,13-0.9,19.9C257.8,363.8,253.3,359.3,248.2,354.6z"/>
	<path class="st0" d="M307.7,252.8c0.2,50.2-40.3,90.8-91.1,90.7c-49.5-0.2-89.6-40.9-89.6-91.2c0-49.5,40.5-90.2,90.1-90.4
		C267.2,161.7,307.5,202.3,307.7,252.8z M266.3,323.1c0.7,1.3,1.5,1.1,2.6,0.3c9.5-7,17.2-15.5,23.2-25.7c0.7-1.2,0.6-1.9-0.4-2.7
		c1.2,0.5,1.9,0.2,2.6-1c5.6-11.1,9.5-22.6,10.2-35c1.5-27.9-7.9-51.7-28.2-70.8c-15.1-14.1-33.3-21.6-53.8-23
		c-17.2-1.2-33.2,3.1-48.1,11.5c-13.1,7.3-23.5,17.5-31.2,30.4c-0.7,1.2-1.9,2.4,0.2,3.6c-2.2-1.1-2.5,0.8-3.1,2
		c-8.6,16.7-11.7,34.4-9,53c0.9,6.5,2.5,12.8,5.5,19.1c10.8-7,21.3-13.7,32.2-20.7c1.1,5,3,9.4,5.3,13.8c-12.8,2.4-25,4.8-37.6,7.2
		c4.7,11.9,11.2,22.1,20.2,30.5c19.7,18.5,43.1,27.1,70.1,24.3c13.8-1.4,26.4-6.3,38.1-13.8c1.1-0.7,1.9-1.4,1.2-2.8
		C266.2,323.3,266.2,323.2,266.3,323.1z"/>
	<path class="st0" d="M257.8,279.1c-5.6-0.3-10.8-2.8-16.8-3.2c0.9,5.7,3.2,10.8,4.9,16.9c-5.2-3.6-9.7-6.7-14.7-10.1
		c-0.5,5.9-1.1,11.3-1.7,17.8c-3.6-5.3-6.6-9.8-10-14.8c-2.6,5.6-5,10.5-7.6,16c-2.3-5.7-2.6-11.4-4.6-17.5
		c-4.3,4-8.3,7.7-12.8,11.8c0.2-6.2,1.8-11.6,2.6-18c-5.9,2.3-11.1,4.4-17.1,6.7c3.1-5.5,5.9-10.4,8.9-15.6c-6,0-11.5,0-17.9,0
		c4.9-4.1,9.2-7.7,13.7-11.5c-5.3-2.8-10.7-4.1-15.9-7c5.3-1.5,10.7-3,16.8-4.6c-2.9-2.6-5.4-4.9-7.9-7c-0.2-0.2-0.3-0.2-0.5-0.4
		c-10.6-7-20.2-15.4-29.7-23.7c-1.5-1.3-3.2-2.4-4.3-4.2c4.4,0.4,8.3,2.6,12.4,3.8c6.4,1.9,12.8,4.1,19.1,6.2
		c1.1,0.4,2.1,0.9,3.4,1.4c-2.8,3.7-4.9,7.3-6.6,11.7c6.1,0.5,12,0.9,18.6,1.4c-2.8-5.6-5.3-10.6-8.2-16.2c6,1.9,10.8,5.2,16.7,6.8
		c0.2-5.8-1.7-11.1-1.7-17.2c4.3,4.4,8,8.4,12.3,12.9c1.6-6,3.2-11.4,4.8-17.4c3.2,5.2,4.3,11,7.5,16.3c3.6-4.8,6.8-9.3,10.1-13.7
		c0.2,0.1,0.5,0.1,0.7,0.2c0,5.6,0,11.1,0,17.5c5.9-2.9,10.4-6.7,15.2-9.7l-0.1-0.1c-0.5,3.9-2.4,7.4-3.7,11.1
		c-0.6,1.7-1.1,3.4-1.9,5.9c6-1.1,11.4-2.1,17.6-3.2c-4.2,4.8-7.7,9-11.7,13.5c6,1.2,11.6,2.3,17.9,3.6c-5.6,2.9-10.5,5.6-16,8.4
		c5.1,3.2,9.8,6.2,15.1,9.5c-6.2,1.1-11.8,1.1-17.5,2.6C251.1,270.4,254.4,274.7,257.8,279.1z"/>
	<path class="st0" d="M265.6,241.5c-1.2-5-3.2-9.4-5.6-14.3c12.4-2.2,24.7-4.3,36.8-6.5c0.1,0.2,0.2,0.4,0.3,0.6
		C286.7,228,276.4,234.6,265.6,241.5z"/>
	<path class="st0" d="M217.2,202.8c-5.3,0.2-10,0.9-15,2.2c0.4-12.3,0.8-24.3,1.2-36.2c0.3-0.1,0.7-0.2,1-0.3
		C208.7,179.8,212.9,191.1,217.2,202.8z"/>
	<path class="st0" d="M266.8,248.4c12.1,3.3,23.8,6.6,35.6,9.8c-11.9,2.6-23.9,3.8-36.5,5.5C266.8,258.6,266.9,253.6,266.8,248.4z"
		/>
	<path class="st0" d="M242.4,170.8c-1.1,12.2-2.2,24.4-3.3,37.1c-4.7-2.4-9.4-3.5-14.5-4.6c5.8-11,11.5-21.8,17.2-32.6
		C242.1,170.7,242.3,170.8,242.4,170.8z"/>
	<path class="st0" d="M291.8,295.1c-5.2-0.8-9.9-3.2-14.8-4.7c-6.6-2.1-13.2-4.6-19.7-6.8c-0.6-1.8,2.7-2.8,0.5-4.5
		c1.3,0.9,1.9-0.1,2.4-1c1.2-2.5,2.5-4.9,3.7-7.6c1.5,0.5,2.5,1.8,3.6,2.8c7.4,6.5,14.8,13.1,22.2,19.6
		C290.4,293.4,291.1,294.3,291.8,295.1z"/>
	<path class="st0" d="M247.5,214.4c0.6-1.7-1.5-1.7-1.9-3.3c9.2-6.8,18.7-13.8,28.1-20.7c0.3,0.3,0.6,0.5,0.9,0.9
		c-6.2,9.9-12.3,19.9-18.7,30.2c-1.9-2-3.5-3.8-5.1-5.3C250,215.2,249.2,213.7,247.5,214.4C247.5,214.3,247.5,214.4,247.5,214.4z"/>
	<path class="st0" d="M168.8,182.3c7.3,6.1,13.8,13.2,20.7,19.7c1.9,1.7,3.8,3.4,6.2,5.6c-4.7,2.6-8.4,5.3-12.4,8.4
		c-2.9-6.4-5.8-12.5-8.3-18.8C172.9,192.3,169.9,187.8,168.8,182.3L168.8,182.3z"/>
	<path class="st0" d="M168.8,182.3c-0.2-0.1-0.3-0.2-0.5-0.3C168.9,181.7,168.7,182.1,168.8,182.3L168.8,182.3z"/>
	<path class="st0" d="M266.1,323.3c-9-8.2-17.5-17-26.4-25.7c4.4-2.6,8.3-5.2,12.1-8.6c2.7,6.1,5.4,11.8,7.8,17.7
		c2.2,5.5,5.1,10.7,6.9,16.5C266.2,323.2,266.2,323.3,266.1,323.3z"/>
	<path class="st0" d="M218.1,302.8c5.3-0.2,9.7-1.2,14.7-2.2c-0.5,12.4-0.9,24.7-1.3,36.9c-0.2,0.1-0.5,0.2-0.7,0.2
		C226.6,326.1,222.4,314.7,218.1,302.8z"/>
	<path class="st0" d="M196.1,298c4.8,2.5,9.3,3.2,14.1,4.4c-5.9,11-11.6,21.7-17.3,32.5c-0.2-0.1-0.5-0.1-0.6-0.2
		C193.5,322.6,194.8,310.6,196.1,298z"/>
	<path class="st0" d="M132,246c12.1-1.5,24.3-2.9,36.8-4.3c-0.9,5-1.3,9.5-1.2,14.7c-12.1-3.2-23.8-6.4-35.5-9.5
		C132.1,246.6,132,246.3,132,246z"/>
	<path class="st0" d="M189.2,294c-9.9,7-18.9,14.4-28.7,20.8c-0.2-0.2-0.5-0.5-0.7-0.8c6.1-9.8,12.3-19.6,18.5-29.6
		C181.8,287.9,184.9,291.3,189.2,294z"/>
</g>
<g>
	
		<image style="overflow:visible;opacity:0.95;" width="475" height="152" xlink:href="4A29C510B5F764F0.png"  transform="matrix(1 0 0 1 -13 -22.8)">
	</image>
	<g>
		<text transform="matrix(1 0 0 1 4 76.4707)"><tspan x="0" y="0" class="st1 st2 st3">CalCOFI</tspan><tspan x="357.7" y="0" class="st1 st2 st4">.io</tspan></text>
	</g>
</g>
</svg>
